<svg xmlns="http://www.w3.org/2000/svg" xmlns:xlink="http://www.w3.org/1999/xlink" viewBox="0 0 398 82"><defs><style>.a{fill:#e83333;}.b{fill:#fff;}.c{fill:#707070;font-size:70px;font-family:Roboto-Black, Roboto;font-weight:800;letter-spacing:-0.05em;}.d{filter:url(#a);}</style><filter id="a" x="0" y="11" width="99.734" height="66.432" filterUnits="userSpaceOnUse"><feOffset dx="1" dy="3" input="SourceAlpha"/><feGaussianBlur stdDeviation="3" result="b"/><feFlood flood-opacity="0.161"/><feComposite operator="in" in2="b"/><feComposite in="SourceGraphic"/></filter></defs><g transform="translate(-34 -5)"><g transform="translate(-41.633 -231.784)"><g class="d" transform="matrix(1, 0, 0, 1, 75.63, 236.78)"><rect class="a" width="81.734" height="48.432" rx="14" transform="translate(8 17)"/></g><g transform="translate(114.117 266.063)"><path class="b" d="M.895,23.689C.652,23.689.5,23.5.5,23.2V.988C.5.681.652.5.895.5a.726.726,0,0,1,.374.117L20.411,11.643a.477.477,0,0,1,0,.9L1.269,23.572A.823.823,0,0,1,.895,23.689Z" transform="translate(-0.449 -0.455)"/><path class="b" d="M.445.09h0A.7.7,0,0,1,.789.2L19.931,11.224a.526.526,0,0,1,.3.415.526.526,0,0,1-.3.415L.8,23.081a.7.7,0,0,1-.344.108c-.212,0-.344-.163-.344-.442V.533C.1.253.233.09.445.09m0-.09C.182,0,0,.2,0,.533V22.738c0,.343.182.533.445.533a.784.784,0,0,0,.4-.126L19.992,12.118a.515.515,0,0,0,0-.975L.85.126A.758.758,0,0,0,.445,0Z" transform="translate(0 0)"/></g></g><text class="c" transform="translate(138 70)"><tspan x="0" y="0">Thinktube</tspan></text></g></svg>